# xmcd
#
# Track frame offsets: 
#        150
#        18812
#        37680
#        54745
#        72362
#        95467
#        124435
#        155145
#        182052
#        203340
#        264235
#
# Disc length: 3670 seconds
#
# Revision: 4
# Processed by: cddbd v1.5.1PL0 Copyright (c) Steve Scherf et al.
# Submitted via: ExactAudioCopy v0.95a4
#
DISCID=8d0e540b
DTITLE=Chris Wilson - The Long Weekend [CD2]
DYEAR=1998
DGENRE=Blues
TTITLE0=Shoot Out
TTITLE1=Last Saturday Night
TTITLE2=Sunbury '73
TTITLE3=Don't Look Down
TTITLE4=Hand Becomes Fist
TTITLE5=Desperado
TTITLE6=Straight Blade
TTITLE7=Hymn Too
TTITLE8=Whisper To A Roar
TTITLE9=Heaven's Thief
TTITLE10=Surf's Up
EXTD=
EXTT0=
EXTT1=
EXTT2=
EXTT3=
EXTT4=
EXTT5=
EXTT6=
EXTT7=
EXTT8=
EXTT9=
EXTT10=
PLAYORDER=
